<svg width="192" height="192" viewBox="0 0 192 192" fill="none" xmlns="http://www.w3.org/2000/svg">
  <!-- Background Circle -->
  <circle cx="96" cy="96" r="96" fill="url(#gradient192)" />
  
  <!-- Phone 1 -->
  <rect x="48" y="60" width="36" height="72" rx="6" fill="white" stroke="#667eea" stroke-width="3"/>
  <circle cx="66" cy="78" r="3" fill="#667eea"/>
  <rect x="54" y="84" width="24" height="42" rx="3" fill="#f8fafc"/>
  <rect x="57" y="87" width="18" height="6" rx="1" fill="#e2e8f0"/>
  <rect x="57" y="96" width="12" height="4" rx="1" fill="#cbd5e1"/>
  <rect x="57" y="105" width="15" height="4" rx="1" fill="#cbd5e1"/>
  
  <!-- VS Text -->
  <text x="96" y="108" text-anchor="middle" fill="white" font-family="Arial Black" font-weight="900" font-size="18">VS</text>
  
  <!-- Phone 2 -->
  <rect x="108" y="60" width="36" height="72" rx="6" fill="white" stroke="#10b981" stroke-width="3"/>
  <circle cx="126" cy="78" r="3" fill="#10b981"/>
  <rect x="114" y="84" width="24" height="42" rx="3" fill="#f8fafc"/>
  <rect x="117" y="87" width="18" height="6" rx="1" fill="#e2e8f0"/>
  <rect x="117" y="96" width="15" height="4" rx="1" fill="#cbd5e1"/>
  <rect x="117" y="105" width="12" height="4" rx="1" fill="#cbd5e1"/>
  
  <!-- Stats at bottom -->
  <rect x="66" y="150" width="4" height="24" rx="1" fill="white" opacity="0.8"/>
  <rect x="75" y="144" width="4" height="30" rx="1" fill="white" opacity="0.9"/>
  <rect x="84" y="138" width="4" height="36" rx="1" fill="white"/>
  <rect x="93" y="147" width="4" height="27" rx="1" fill="white" opacity="0.8"/>
  
  <rect x="105" y="147" width="4" height="27" rx="1" fill="white" opacity="0.8"/>
  <rect x="114" y="141" width="4" height="33" rx="1" fill="white" opacity="0.9"/>
  <rect x="123" y="138" width="4" height="36" rx="1" fill="white"/>
  
  <!-- Gradients -->
  <defs>
    <linearGradient id="gradient192" x1="0%" y1="0%" x2="100%" y2="100%">
      <stop offset="0%" style="stop-color:#667eea;stop-opacity:1" />
      <stop offset="50%" style="stop-color:#764ba2;stop-opacity:1" />
      <stop offset="100%" style="stop-color:#f093fb;stop-opacity:1" />
    </linearGradient>
  </defs>
</svg>